<svg width="339" height="339" xmlns="http://www.w3.org/2000/svg" xmlns:xlink="http://www.w3.org/1999/xlink" xml:space="preserve" overflow="hidden"><g transform="translate(-262 -78)"><path d="M520.841 127.416 530.375 127.416 530.375 106.25 332.731 106.25 332.731 127.438 341.912 127.438C345.797 166.61 368.397 223.788 401.205 247.433 368.382 271.092 345.443 328.253 341.912 367.428L332.731 367.428 332.731 388.616 530.375 388.616 530.375 367.428 520.841 367.428C517.309 328.253 494.356 271.078 461.547 247.433 494.374 223.766 517.309 166.588 520.841 127.416ZM499.547 127.416C497.596 143.178 493.596 158.618 487.647 173.344L375.353 173.344C369.403 158.611 365.332 143.188 363.237 127.438ZM413.582 264.602C414.965 263.606 416.222 262.446 417.326 261.148L424.543 270.386 424.543 332.25 389.397 367.397 363.195 367.397C366.942 332.25 387.737 283.222 413.582 264.602ZM499.551 367.397 473.815 367.397 438.668 332.25 438.668 270.135 445.579 261.307C446.644 262.536 447.846 263.638 449.163 264.591 475.012 283.222 495.808 332.25 499.551 367.397Z" fill="#545BFF"/></g></svg>